<?xml version="1.0" standalone="no"?>
<!DOCTYPE svg PUBLIC "-//W3C//DTD SVG 20010904//EN"
 "http://www.w3.org/TR/2001/REC-SVG-20010904/DTD/svg10.dtd">
<svg version="1.0" xmlns="http://www.w3.org/2000/svg"
 width="1149.000000pt" height="217.000000pt" viewBox="0 0 1149.000000 217.000000"
 preserveAspectRatio="xMidYMid meet">

<g transform="translate(0.000000,217.000000) scale(0.100000,-0.100000)"
fill="#000000" stroke="none">
<path d="M4943 1634 c-46 -10 -57 -64 -13 -64 13 0 20 -7 20 -19 0 -10 3 -38
6 -63 6 -40 4 -46 -15 -51 -27 -7 -27 -24 -1 -32 14 -4 20 -15 20 -35 0 -47
17 -80 41 -80 20 0 21 3 15 55 l-6 55 39 19 c52 27 85 81 77 125 -10 51 -56
88 -113 92 -26 1 -58 0 -70 -2z m134 -65 c7 -6 13 -20 13 -30 0 -21 -65 -98
-74 -88 -4 3 -9 37 -13 74 l-6 68 33 -6 c18 -4 39 -12 47 -18z"/>
<path d="M5423 1618 c-6 -7 -15 -26 -20 -43 -7 -21 -19 -33 -41 -40 -38 -11
-42 -32 -7 -41 24 -6 25 -10 25 -79 0 -88 12 -125 40 -125 18 0 20 6 20 74 0
113 7 136 41 136 48 0 44 32 -6 42 -16 3 -20 11 -20 42 0 41 -15 56 -32 34z"/>
<path d="M6003 1574 c-9 -24 24 -47 49 -33 27 15 18 43 -15 47 -18 2 -29 -2
-34 -14z"/>
<path d="M5191 1494 c-23 -29 -36 -84 -32 -137 3 -52 97 -89 127 -49 27 35 12
70 -16 37 -19 -22 -39 -18 -50 11 -13 34 -13 47 3 41 25 -9 55 12 67 48 10 31
10 39 -6 56 -25 28 -68 24 -93 -7z m69 -22 c0 -26 -25 -56 -38 -48 -9 5 -8 15
3 37 17 33 35 38 35 11z"/>
<path d="M5553 1493 c-23 -35 -28 -149 -7 -180 23 -36 60 -30 82 14 l19 37 17
-32 c15 -29 35 -40 48 -27 3 3 -1 29 -9 57 -7 29 -13 68 -13 88 0 29 -6 38
-31 53 -46 26 -85 22 -106 -10z m77 -34 c0 -33 -30 -129 -41 -129 -15 0 -14
103 2 132 13 25 39 23 39 -3z"/>
<path d="M5758 1493 c-3 -4 -3 -45 0 -91 3 -68 7 -84 23 -93 19 -9 52 0 50 14
-4 28 1 56 13 72 13 19 15 17 31 -23 18 -45 50 -71 67 -54 6 6 4 20 -6 39 -8
17 -18 53 -22 82 -4 28 -11 54 -15 57 -20 12 -49 -9 -65 -47 -10 -21 -21 -39
-25 -39 -4 0 -9 19 -11 42 -2 30 -8 44 -20 46 -9 2 -18 -1 -20 -5z"/>
<path d="M6000 1470 c-6 -12 -14 -52 -17 -89 -5 -64 -4 -68 16 -74 26 -6 27
-3 36 87 3 37 7 73 8 79 4 21 -32 18 -43 -3z"/>
<path d="M4646 1362 c-25 -41 -31 -640 -8 -742 l8 -35 65 1 c102 1 100 -2 93
106 l-5 93 28 -35 c15 -19 53 -61 84 -94 l55 -58 32 16 c36 19 112 88 112 102
0 6 -28 30 -62 54 -35 24 -82 62 -105 83 l-42 39 72 57 c40 32 87 74 105 95
l32 37 -22 30 c-27 37 -81 79 -101 79 -8 0 -40 -33 -70 -72 -31 -40 -67 -86
-81 -103 l-25 -30 0 35 c0 31 5 73 35 276 l6 41 -58 11 c-113 21 -142 23 -148
14z"/>
<path d="M6172 1339 c-23 -4 -47 -11 -52 -14 -6 -3 -10 -41 -10 -84 l0 -78
-51 -6 c-141 -17 -229 -137 -229 -313 0 -124 50 -212 133 -235 64 -17 147 14
162 61 11 35 24 22 31 -31 l7 -51 59 6 c96 11 88 -12 89 260 0 132 2 259 4
281 2 22 6 77 9 121 l5 82 -31 6 c-38 7 -70 6 -126 -5z m-50 -414 c3 -100 0
-125 -15 -153 -22 -40 -55 -41 -74 -2 -20 40 -16 177 7 228 18 40 56 68 72 53
4 -4 9 -61 10 -126z"/>
<path d="M5370 1221 c-225 -69 -301 -329 -147 -498 65 -71 114 -95 202 -101
88 -5 137 8 205 56 100 69 147 200 116 322 -28 108 -93 178 -200 214 -49 17
-133 20 -176 7z m211 -257 c30 -64 55 -120 57 -125 2 -5 -32 8 -75 28 -43 20
-124 57 -181 83 -57 26 -102 51 -101 56 2 9 199 72 230 73 11 1 33 -36 70
-115z m-42 -109 c4 -13 -117 -87 -130 -80 -5 4 -9 13 -9 21 0 8 -8 22 -19 33
-17 17 -36 103 -24 114 6 7 177 -76 182 -88z"/>
<path d="M6620 1175 c-63 -21 -135 -86 -170 -155 -79 -157 -56 -318 55 -382
56 -32 168 -32 242 1 55 24 128 94 118 112 -10 15 -102 59 -125 59 -11 0 -20
-6 -20 -14 0 -23 -50 -76 -71 -76 -28 0 -48 38 -51 99 l-3 54 90 1 c50 1 107
8 127 15 33 11 38 17 47 62 23 107 4 171 -64 210 -43 25 -121 31 -175 14z m75
-105 c10 -31 -4 -98 -22 -104 -16 -7 -63 3 -63 13 0 21 22 76 36 92 22 25 41
24 49 -1z"/>
</g>
</svg>
